<svg width="40" height="47" viewBox="0 0 40 47" fill="none" xmlns="http://www.w3.org/2000/svg">
<path d="M24.1893 46.7188C24.4469 45.77 24.8772 44.889 25.2364 43.9776C26.4867 40.8061 27.7471 37.6379 29.0008 34.4664C29.055 34.3343 29.0855 34.192 29.1431 33.9955C27.0695 34.9002 25.0398 35.7811 22.8306 36.7434C25.9682 29.5533 29.0415 22.5089 32.1147 15.4611C32.0741 15.4238 32.0334 15.3899 31.9927 15.3527C26.9509 18.5242 21.909 21.6991 16.8705 24.8706C16.8366 24.8401 16.8061 24.8096 16.7722 24.7791C22.1496 16.5183 27.5269 8.26083 32.9042 0C32.9449 0.0203302 32.9889 0.0440487 33.0296 0.0643789C31.1321 4.40487 29.238 8.74537 27.2761 13.235C31.3523 10.8597 35.3167 8.55223 39.4472 6.14649C36.0486 14.2616 32.7111 22.2311 29.3769 30.1971C29.4074 30.2276 29.4413 30.2547 29.4718 30.2852C31.7861 29.1027 34.1003 27.9201 36.5332 26.68C36.157 27.561 35.6454 28.2318 35.2185 28.9434C33.653 31.5491 32.0571 34.1378 30.468 36.7299C28.8314 39.4033 27.1914 42.0699 25.5582 44.7433C25.1347 45.4346 24.7688 46.1597 24.2774 46.8069C24.2503 46.7764 24.2232 46.7493 24.1927 46.7188H24.1893Z" fill="white"/>
<path d="M21.6821 34.3853C21.1806 35.5475 20.5978 36.6521 20.2319 37.8245C19.8456 39.0646 18.7986 39.4374 17.8668 40.0235C17.1586 40.4708 16.5589 40.4234 15.8236 40.0303C13.8312 38.9731 11.9609 37.7567 10.2294 36.3133C7.57631 34.1007 5.42809 31.4849 3.7068 28.5031C2.426 26.2871 1.49081 23.922 0.853798 21.4553C0.467525 19.9543 0.216786 18.4126 0.0812511 16.8505C-0.030565 15.4884 0.0033187 14.133 0.0100954 12.7743C0.0134838 11.2665 0.29133 9.779 0.569176 8.2949C0.613224 8.05432 0.72504 7.99333 0.948672 7.96622C3.74407 7.65788 6.47848 7.0717 9.17562 6.27882C11.6728 5.54354 14.1192 4.67612 16.4742 3.56135C16.7927 3.40887 17.0434 3.47325 17.3246 3.60201C19.6423 4.64902 21.9769 5.65875 24.4673 6.24832C25.0908 6.39741 25.1009 6.47196 24.718 7.05475C24.43 7.49185 24.1285 7.91879 23.8811 8.37622C23.6846 8.73877 23.505 8.80993 23.0713 8.68456C21.0349 8.09498 19.0696 7.32582 17.1179 6.50584C16.979 6.44824 16.8604 6.3703 16.6741 6.4584C15.1595 7.16657 13.594 7.74598 12.0117 8.2644C9.74825 9.00306 7.44755 9.63669 5.09603 10.0535C4.43191 10.172 3.76779 10.2906 3.10367 10.3957C2.96814 10.416 2.90715 10.4431 2.89359 10.5922C2.72756 12.4694 2.57848 14.3363 2.75467 16.2338C2.9207 18.0364 3.21549 19.8018 3.71019 21.5332C4.50984 24.3286 5.77031 26.9173 7.43739 29.2858C8.8605 31.3121 10.5648 33.0943 12.5098 34.653C13.7736 35.6661 15.1561 36.4759 16.5114 37.34C16.7283 37.4789 16.9079 37.4348 17.1213 37.3162C18.6054 36.4793 20.0421 35.5746 21.3534 34.4768C21.4246 34.4158 21.4788 34.3243 21.6922 34.3785L21.6821 34.3853Z" fill="white"/>
</svg>
