<svg xmlns="http://www.w3.org/2000/svg" id="Layer_1" version="1.1" viewBox="48.87 38.23 632.02 138.71">
  <defs>
    <style>
      .st0 {
        fill: #fff
      }
    </style>
  </defs>
  <path d="M172.76 123.56c2.79 0 5.58-.01 8.37.01.37 0 .88-.29 1.04.48 1.41 6.81 6.3 10.07 12.48 11.69 6.18 1.62 12.24 1 17.82-2.3 3.74-2.21 6.55-6.96 4.54-11.69-1.06-2.5-3.08-4.11-5.38-5.34-3.84-2.06-8.04-3.19-12.17-4.44-4.31-1.31-8.62-2.59-12.56-4.82-6.92-3.91-11.71-9.55-12.88-17.56-1.13-7.74.8-14.78 6.03-20.82 4.49-5.18 10.17-8.24 16.68-10.14 5.42-1.58 10.94-2.02 16.47-1.6 9.46.71 18 3.8 24.43 11.18 3.39 3.89 5.58 8.42 6.06 13.66.32 3.44.34 3.44-3.14 3.44-4.44 0-8.89-.03-13.33.02-1.04.01-1.44-.32-1.68-1.32-1.14-4.91-4.31-8.14-8.88-9.94-5.57-2.19-11.26-2.1-16.66.38-4.09 1.88-7.1 4.75-6.56 10.27.21 2.16 1.34 3.9 2.88 5.26 3.78 3.34 8.6 4.47 13.26 5.92 6.18 1.91 12.42 3.68 17.83 7.45 5 3.48 8.28 7.99 9.15 14.17 1.07 7.62-.05 14.74-4.67 21.03-4.19 5.7-9.97 9.18-16.64 11.29-3.77 1.19-7.64 1.69-11.56 2.14-3.47.39-6.87.23-10.26-.14-8.99-.96-17.19-3.89-23.35-10.89-3.69-4.19-5.82-9.17-6.34-14.77-.08-.83-.84-1.83-.25-2.39.67-.64 1.85-.2 2.8-.22 2.16-.04 4.33-.01 6.49-.01ZM348.59 150.88c-4.67.08-9.02-1-12.82-3.76-3.06-2.23-5.53-4.97-6.65-8.71-.13-.45-.16-1.14-.73-1.12-.61.02-.54.68-.65 1.19-1.8 8.33-3.63 16.65-5.44 24.98-.6 2.74-1.19 5.49-1.69 8.25-.15.8-.48 1.04-1.22 1.04-5.58-.01-11.16-.02-16.74.01-.85 0-.99-.38-.84-1.02 1.5-6.38 2.82-12.79 4.11-19.21 1.29-6.42 2.69-12.82 4.08-19.21 1.33-6.07 2.85-12.1 4.03-18.2 1.08-5.63 2.36-11.21 3.49-16.82 1.08-5.34 2.31-10.65 3.37-15.99.26-1.28.66-1.82 2.08-1.8 5.01.1 10.02.03 15.03.04.82 0 1.67-.36 1.13 1.28-.79 2.39-1.04 4.95-1.55 7.44-.06.29-.51.59 0 .8.4.17.6-.12.87-.48 1.88-2.52 4.17-4.63 6.87-6.26 3.79-2.29 7.85-3.67 12.33-3.83 4.57-.16 8.97.34 13.1 2.5 5.91 3.09 9.49 8.06 11.3 14.29 1.29 4.45 1.57 9.01 1.17 13.71-.49 5.73-1.52 11.25-3.49 16.63-1.66 4.54-4.09 8.61-7.08 12.4-2.75 3.48-6.11 6.22-9.91 8.33-3.06 1.69-6.39 2.86-9.96 3.23-1.4.14-2.79.28-4.19.29ZM364 109.53c-.05-1.62.12-3.25-.34-4.85-.83-2.9-1.95-5.55-4.54-7.44-4.79-3.5-11.45-3.07-16.46.39-3.74 2.59-6.5 6.07-8.26 10.27-2.26 5.38-3.29 10.96-2.17 16.74 1.46 7.49 6.97 10.81 13.52 10.46 5.88-.32 10.27-3.65 13.42-8.46 3.38-5.16 4.96-10.91 4.83-17.1ZM427.82 119.46c-7.57 0-15.15.03-22.72-.03-1.19 0-1.53.27-1.49 1.48.17 4.75 1.16 9.2 4.93 12.44 3.34 2.88 7.27 3.83 11.72 3.29 3.13-.38 5.86-1.34 8.37-3.17 1.03-.75 1.73-1.77 2.32-2.8.43-.76.84-.99 1.65-.98 5.18.03 10.37.06 15.55-.01 1.4-.02 1.35.37 1 1.52-1.29 4.14-3.41 7.81-6.45 10.83-4.66 4.64-10.47 7.17-16.87 8.51-4.3.9-8.67.95-12.97.59-6.05-.51-11.68-2.42-16.55-6.35-5.62-4.52-8.69-10.5-9.65-17.38-1.33-9.47.02-18.7 4.01-27.49 1.8-3.97 4.19-7.58 7.23-10.62 4.93-4.93 10.9-8.09 17.84-9.5 4.11-.84 8.26-.96 12.29-.52 8.06.87 14.92 4.35 19.73 11.18 3.26 4.63 4.88 9.75 5.2 15.44.25 4.39-.49 8.65-.75 12.97-.06 1.01-.84.57-1.29.57-7.69.03-15.38.02-23.07.02Zm-7.23-11.95h12.96c1.85 0 2.47-.85 2.03-2.74-.08-.32-.12-.66-.16-.99-.46-4.32-2.7-7.52-6.62-9.2-5.21-2.22-10.33-1.44-15.01 1.62-3.64 2.39-5.91 5.89-7.47 9.93-.48 1.24-.21 1.39.96 1.38 4.43-.05 8.87-.02 13.3-.02ZM283.3 139.22c-1.39 1.81-2.51 3.83-4.17 5.45-4.41 4.31-9.64 6.47-15.83 6.58-4.54.08-8.89-.49-12.84-2.8-4.72-2.77-7.67-6.87-8.85-12.28-1.22-5.6-.19-11.03.94-16.48 1.19-5.77 2.33-11.55 3.53-17.32 1.15-5.55 2.35-11.09 3.53-16.63.3-1.4.77-2.79.85-4.2.06-1.07.54-1.01 1.26-1.01 5.47.01 10.93.03 16.4-.01 1.06 0 1.33.21 1.09 1.34-1.49 6.89-2.88 13.79-4.34 20.69-1.3 6.13-2.83 12.23-3.93 18.39-.78 4.37-.79 8.74 3 12.13 1.55 1.39 3.43 1.84 5.29 2.04 4.82.53 9.21-.68 12.67-4.2 2.84-2.89 4.38-6.52 5.2-10.49 2.14-10.35 4.28-20.7 6.53-31.02.56-2.58 1.18-5.14 1.68-7.74.15-.8.56-1.16 1.48-1.15 5.41.05 10.82.06 16.23 0 1.15-.01 1.23.55 1.06 1.33-1.33 6.13-2.74 12.24-4.03 18.38-1.55 7.38-2.96 14.8-4.52 22.18-1.4 6.62-2.97 13.2-4.35 19.82-.47 2.26-.9 4.54-1.38 6.8-.17.81-.46.84-1.07.84-5.35-.01-10.71-.03-16.06.02-1.16.01-1.14-.45-.92-1.33.68-2.77 1.3-5.56 1.91-8.35.06-.28.18-.68-.35-.97ZM120.27 176.11c.76-2.8 2.03-5.4 3.09-8.09 3.69-9.36 7.41-18.71 11.11-28.07.16-.39.25-.81.42-1.39-6.12 2.67-12.11 5.27-18.63 8.11 9.26-21.22 18.33-42.01 27.4-62.81-.12-.11-.24-.21-.36-.32-14.88 9.36-29.76 18.73-44.63 28.09-.1-.09-.19-.18-.29-.27 15.87-24.38 31.74-48.75 47.61-73.13.12.06.25.13.37.19-5.6 12.81-11.19 25.62-16.98 38.87 12.03-7.01 23.73-13.82 35.92-20.92-10.03 23.95-19.88 47.47-29.72 70.98.09.09.19.17.28.26 6.83-3.49 13.66-6.98 20.84-10.64-1.11 2.6-2.62 4.58-3.88 6.68-4.62 7.69-9.33 15.33-14.02 22.98-4.83 7.89-9.67 15.76-14.49 23.65-1.25 2.04-2.33 4.18-3.78 6.09-.08-.09-.16-.17-.25-.26ZM450.59 149.85c2.15-10.33 4.21-20.54 6.39-30.71 1.98-9.25 4.15-18.46 6.09-27.72.7-3.34 1.43-6.68 2.05-10.04.15-.82.45-.85 1.06-.84 5.35.01 10.71.05 16.06-.02 1.22-.02 1.21.68 1.01 1.36-.71 2.32-.76 4.79-1.63 7.07-.12.32-.25.92.15 1.07.52.2.66-.34.9-.75 3.07-5.34 7.61-8.88 13.72-9.64 3.67-.46 7.5-.52 11.16.85.97.36 1.16.79.99 1.57-1.11 5.1-2.27 10.2-3.35 15.31-.19.88-.58.59-1.06.43-3.41-1.15-6.9-1.62-10.51-1.57-6.29.09-10.76 3.01-13.69 8.42-1.99 3.67-2.61 7.78-3.47 11.8-2.27 10.6-4.57 21.19-6.82 31.8-.25 1.18-.68 1.69-2.03 1.67-5.63-.1-11.27-.04-17-.04Z" class="st0" />
  <path d="M112.87 139.71c-1.48 3.43-3.2 6.69-4.28 10.15-1.14 3.66-4.23 4.76-6.98 6.49-2.09 1.32-3.86 1.18-6.03.02-5.88-3.12-11.4-6.71-16.51-10.97-7.83-6.53-14.17-14.25-19.25-23.05-3.78-6.54-6.54-13.52-8.42-20.8-1.14-4.43-1.88-8.98-2.28-13.59-.34-4.03-.24-8.03-.22-12.04.01-4.45.83-8.84 1.65-13.22.13-.71.46-.89 1.12-.97 8.25-.91 16.32-2.64 24.28-4.98 7.37-2.17 14.59-4.73 21.54-8.02.94-.45 1.68-.26 2.51.12 6.84 3.09 13.73 6.07 21.08 7.81 1.84.44 1.87.66.74 2.38-.85 1.29-1.74 2.55-2.47 3.9-.58 1.07-1.11 1.28-2.39.91-6.01-1.74-11.81-4.01-17.57-6.43-.41-.17-.76-.4-1.31-.14-4.47 2.09-9.09 3.8-13.76 5.33-6.68 2.18-13.47 4.05-20.41 5.28-1.96.35-3.92.7-5.88 1.01-.4.06-.58.14-.62.58-.49 5.54-.93 11.05-.41 16.65.49 5.32 1.36 10.53 2.82 15.64 2.36 8.25 6.08 15.89 11 22.88 4.2 5.98 9.23 11.24 14.97 15.84 3.73 2.99 7.81 5.38 11.81 7.93.64.41 1.17.28 1.8-.07 4.38-2.47 8.62-5.14 12.49-8.38.21-.18.37-.45 1-.29Z" class="st0" />
</svg>